<?xml version="1.0" encoding="UTF-8"?><svg id="outlined" xmlns="http://www.w3.org/2000/svg" viewBox="0 0 240 240"><defs><style>.cls-1,.cls-2,.cls-3{fill:#f0ab00;}.cls-4{fill:#4fb81c;}.cls-2{opacity:.7;}.cls-3{opacity:.4;}</style></defs><g><path d="M180.99,184.72c-.92-.52-1.98-.82-3.12-.82-.41,0-.8,.04-1.19,.11-2.87,.54-5.03,2.97-5.03,5.89,0,.45,.05,.88,.15,1.3-3.02,1.87-6.15,3.59-9.43,5.13-44.35,20.75-97.9,2.79-119.36-40.04-10.23-20.41-11.75-43.48-4.29-64.97,7.7-22.17,23.94-40,45.74-50.2,12.52-5.86,25.77-8.63,38.83-8.63,17.26,0,34.18,4.86,48.61,13.84-.06,.22-.11,.44-.15,.66-.06,.33-.09,.66-.09,1.01,0,3.32,2.78,6.01,6.22,6.01,1.25,0,2.42-.36,3.39-.98,1.16-.73,2.05-1.83,2.5-3.12,.21-.6,.33-1.24,.33-1.91,0-3.13-2.48-5.7-5.64-5.98-.19-.02-.38-.03-.58-.03-1.34,0-2.58,.41-3.59,1.11-26.5-16.6-61.08-19.84-91.51-5.6-22.78,10.66-39.76,29.31-47.82,52.51-7.82,22.52-6.23,46.7,4.49,68.08,16.1,32.13,49.46,50.88,84.14,50.87,13.62,0,27.44-2.89,40.5-9,3.44-1.61,6.73-3.42,9.89-5.38,.77,.61,1.7,1.03,2.72,1.22,.38,.07,.78,.11,1.19,.11,3.43,0,6.22-2.69,6.22-6.01,0-.77-.16-1.51-.43-2.19-.51-1.27-1.46-2.32-2.66-3Z"/><path d="M122.41,48.32c-21.7,0-41.16,9.74-54.28,25.07-.73-.31-1.54-.48-2.38-.48-3.41,0-6.18,2.77-6.18,6.18,0,.42,.04,.83,.12,1.22,.22,1.07,.71,2.04,1.4,2.83,.88,1.01,2.09,1.74,3.46,2,.39,.08,.78,.12,1.19,.12,1.03,0,2-.25,2.85-.7,1.98-1.03,3.33-3.1,3.33-5.48,0-1.11-.3-2.15-.81-3.05,12.38-14.5,30.77-23.73,51.29-23.73,31.76,0,58.44,22.07,65.55,51.68,1.21,5.06,1.88,10.32,1.88,15.75,0,14.95-4.9,28.77-13.16,39.96-12.29,16.65-32.04,27.47-54.27,27.47-20.42,0-38.73-9.14-51.11-23.52,.4-.82,.63-1.73,.63-2.7,0-2.38-1.35-4.45-3.33-5.48-.85-.44-1.82-.7-2.85-.7-.3,0-.6,.03-.89,.07-1.39,.2-2.64,.87-3.57,1.84-1.06,1.1-1.71,2.59-1.72,4.24,0,.01,0,.02,0,.03,0,3.41,2.77,6.18,6.18,6.18,.98,0,1.9-.23,2.72-.64,13.11,15.1,32.42,24.68,53.94,24.68s41.16-9.74,54.27-25.06c10.68-12.49,17.16-28.68,17.16-46.36,0-5.41-.62-10.68-1.77-15.75-7.19-31.83-35.68-55.68-69.66-55.68Z"/></g><g><path class="cls-4" d="M145.03,76.94c-7.19-4.1-15.5-6.46-24.37-6.46-.26,0-.51,.02-.77,.02-9.21,.14-17.81,2.81-25.13,7.34v83.8c7.32,4.54,15.92,7.2,25.13,7.34,.26,0,.51,.02,.77,.02,8.87,0,17.18-2.36,24.37-6.46,14.86-8.48,24.89-24.47,24.89-42.81s-10.03-34.33-24.89-42.81Zm-18.32,44.22v26.61c0,3.8-3.04,6.88-6.82,6.97-.05,0-.11,0-.16,0h0c-3.85,0-6.98-3.12-6.98-6.98v-26.61c-6-2.67-10.19-8.68-10.19-15.67,0-9.48,7.68-17.16,17.16-17.16,.05,0,.11,0,.16,0,9.4,.09,17,7.73,17,17.15,0,6.99-4.19,13-10.19,15.67Z"/><g><path class="cls-1" d="M71.4,119.75c0,17.7,9.34,33.21,23.36,41.9V77.85c-14.02,8.68-23.36,24.2-23.36,41.9Z"/><path class="cls-2" d="M119.73,154.75h0c-3.85,0-6.98-3.12-6.98-6.98v-26.61c-6-2.67-10.19-8.68-10.19-15.67,0-9.48,7.68-17.16,17.16-17.16,.05,0,.11,0,.16,0v-17.83c-9.21,.14-17.81,2.81-25.13,7.34v83.8c7.32,4.54,15.92,7.2,25.13,7.34v-14.25c-.05,0-.11,0-.16,0Z"/><path class="cls-3" d="M120.66,70.49c-.26,0-.51,.02-.77,.02v17.83c9.4,.09,17,7.73,17,17.15,0,6.99-4.19,13-10.19,15.67v26.61c0,3.8-3.04,6.88-6.82,6.97v14.25c.26,0,.51,.02,.77,.02,8.87,0,17.18-2.36,24.37-6.46V76.94c-7.19-4.1-15.5-6.46-24.37-6.46Z"/></g></g></svg>