<svg xmlns="http://www.w3.org/2000/svg" viewBox="0 0 248 248"><path d="M63.6,93.218a11.814,11.814,0,0,0,2.032-.177,11.641,11.641,0,0,0,4.857-2.072l23.274,24.625,6-2.3V102.34a24.1,24.1,0,0,1,10.662-19.935,24.53,24.53,0,0,0,26.626,0,24.111,24.111,0,0,1,10.661,19.952l.1,11.737.016,2.045,4.3,1.688,1.662-1.758,23.723-25.1a11.663,11.663,0,0,0,4.858,2.072A11.736,11.736,0,0,0,195.957,83.5h0a11.742,11.742,0,1,0-21.4,4.358l-22.485,23.789L152,102.34A28.392,28.392,0,0,0,138.085,78l-1.217-.719-1.14.838a20.238,20.238,0,0,1-23.977,0l-1.139-.838L109.393,78a28.4,28.4,0,0,0-13.91,24.342v8.836L73.443,87.857a11.726,11.726,0,1,0-9.84,5.361ZM177.042,80.187a7.461,7.461,0,0,1,14.7,2.574h0a7.461,7.461,0,0,1-14.7-2.574Zm-119.539-3a7.458,7.458,0,1,1-1.243,5.573h0A7.41,7.41,0,0,1,57.5,77.188Zm89.54,114.183a9.681,9.681,0,0,0-7.2,16.175l-5.724,6.143a11.8,11.8,0,0,0-8-6.572v-23.4h-4.282v23.2a11.771,11.771,0,0,0-8.428,5.5l-5.423-5.819a9.667,9.667,0,1,0-3.527,2.5l7.337,7.874a11.613,11.613,0,0,0-.118,1.57,11.736,11.736,0,0,0,23.468.327l8.219-8.821a9.7,9.7,0,1,0,3.67-18.669ZM100.8,205.535a5.417,5.417,0,1,1,5.416-5.417A5.423,5.423,0,0,1,100.8,205.535ZM123.429,226a7.461,7.461,0,1,1,7.46-7.461A7.47,7.47,0,0,1,123.429,226Zm23.614-19.51a5.416,5.416,0,1,1,5.417-5.416A5.422,5.422,0,0,1,147.043,206.485ZM124.089,79.022A24.531,24.531,0,1,0,99.557,54.491,24.559,24.559,0,0,0,124.089,79.022Zm0-44.781a20.25,20.25,0,1,1-20.25,20.25A20.273,20.273,0,0,1,124.089,34.241Zm56.878,156.784a11.669,11.669,0,0,0-8.411,1.73l-31.7-29.963-2.942,3.111,31.534,29.8a11.733,11.733,0,1,0,11.521-4.682Zm5.324,12.854a7.459,7.459,0,1,1-7.365-8.751,7.572,7.572,0,0,1,1.3.114,7.463,7.463,0,0,1,6.062,8.637Zm14.4-70.389a11.639,11.639,0,0,0-4.734,1l-8.405-7.832a9.766,9.766,0,1,0-2.5,3.526l7.3,6.8a11.755,11.755,0,0,0-3.083,5.543H157.483v4.282h31.583a11.743,11.743,0,0,0,3.751,7.106l-8.713,8.119a9.66,9.66,0,1,0,2.495,3.527l10.013-9.33a11.74,11.74,0,1,0,4.077-22.748Zm-22.11-5.083A5.416,5.416,0,1,1,184,122.991,5.422,5.422,0,0,1,178.579,128.407Zm-.952,46.248a5.417,5.417,0,1,1,5.416-5.417A5.423,5.423,0,0,1,177.627,174.655Zm23.062-21.962a7.461,7.461,0,1,1,7.461-7.461A7.47,7.47,0,0,1,200.689,152.693ZM77.236,195.7l24.49-23.147-2.81-3.234L74.123,192.754a11.736,11.736,0,1,0-6.412,21.584,11.874,11.874,0,0,0,2.05-.18A11.73,11.73,0,0,0,77.236,195.7Zm-3.394,11.176a7.461,7.461,0,1,1-7.394-11.636,7.572,7.572,0,0,1,1.3-.114,7.463,7.463,0,0,1,6.091,11.75ZM60.45,162.528A9.761,9.761,0,1,0,62.945,159l-7.3-6.8a11.748,11.748,0,0,0,3.084-5.543H90.516v-4.282H58.934a11.738,11.738,0,0,0-3.751-7.1l8.713-8.119a9.66,9.66,0,1,0-2.495-3.527l-10.012,9.33a11.742,11.742,0,1,0,.655,21.743Zm9.923-47.993a5.416,5.416,0,1,1-5.416,5.416A5.423,5.423,0,0,1,70.373,114.535Zm-.952,46.248a5.416,5.416,0,1,1-5.416,5.416A5.421,5.421,0,0,1,69.421,160.783ZM39.85,143.957a7.461,7.461,0,1,1,7.461,7.461A7.469,7.469,0,0,1,39.85,143.957Zm84.229,42.783v-3.486l-.013,0c-3.556-.873-32.333-8.925-32.333-39.951v-25.52l32.346-10.494v-3.568l-1.688.547L94.556,113.3l-3.625,1.176-2.593.841v27.988c0,.077,0,.152,0,.23l.126,3.394a40.892,40.892,0,0,0,8.579,22.946l2.213,2.587c8.468,9.121,19.371,12.806,23.132,13.858l1.688.419Zm6.99-39.654a11.238,11.238,0,0,0,1.833-1.881h0a11.235,11.235,0,0,0-8.824-18.1c-.027,0-.053,0-.08,0a11.243,11.243,0,0,0-7.071,19.987l-2.545,16.333h19.233Zm-1.418,12.94h-11.3l2.262-14.515-.913-.6A7.849,7.849,0,0,1,124,130.5c.027,0,.053,0,.08,0a7.846,7.846,0,0,1,4.222,14.41l-.448.294h0l-.464.3ZM76.217,75.77a38.836,38.836,0,0,1,5.812-5.6,24.462,24.462,0,0,0,25.433.727c.4-.23-1.485-4.08-2.194-3.679a20.009,20.009,0,0,1-4.468,1.855,20.3,20.3,0,0,1-17.446-3.191l-1.14-.838L81,65.762c-2.909,1.718-7.525,6.481-7.525,6.481a6,6,0,0,1,1.764,1.769A6.421,6.421,0,0,1,76.217,75.77Zm26.469-14.511a20.251,20.251,0,1,1,11.6-27.019l4.071-1.369A24.527,24.527,0,1,0,103.84,65.4ZM174.2,72.123a28.174,28.174,0,0,0-7.427-6.361l-1.217-.719-1.14.838a20.25,20.25,0,0,1-22.048,1.26L140.487,71a24.542,24.542,0,0,0,25.249-.831,24,24,0,0,1,6.24,6.1,6.4,6.4,0,0,1,.751-2.253A6.557,6.557,0,0,1,174.2,72.123Zm-40.02-37.882a20.249,20.249,0,1,1,11.026,26.8l-1.5,4.01a24.532,24.532,0,1,0-13.727-31.84Z"/><path d="M124.079,103.724v23.381a11.235,11.235,0,0,1,8.824,18.1h0a11.238,11.238,0,0,1-1.833,1.881l2.547,16.335h-9.537V186.74l.39-.084c.257-.059,18.82-4.579,28.947-20.708h0a42.559,42.559,0,0,0,6.349-20.743h0c.046-.9.076-1.812.076-2.748V115.318Z" fill="#4fb81c"/><polygon points="124.079 103.724 124.079 124.463 159.839 124.463 159.839 115.318 124.079 103.724" fill="#f0ab00"/><path d="M124.079,124.452v2.653a11.235,11.235,0,0,1,8.824,18.1h26.86c.046-.9.076-1.812.076-2.748v-18Z" fill="#f0ab00" opacity="0.7"/><path d="M132.9,145.205a11.238,11.238,0,0,1-1.833,1.881l2.547,16.335h-9.537v2.536h29.33a42.557,42.557,0,0,0,6.354-20.752Z" fill="#f0ab00" opacity="0.4"/></svg>