<svg id="Pictograms" xmlns="http://www.w3.org/2000/svg" viewBox="0 0 240 240"><defs><style>.cls-1{fill:#4fb81c;}.cls-2{opacity:0.4;}.cls-3{fill:#f0ab00;}.cls-4{opacity:0.7;}</style></defs><path d="M119.84,227.55l-1-.43c-1-.46-25.51-11.58-49.24-38.7-21.89-25-47-68.83-42.34-135.64l.14-2.06,2.06.21c.6.06,60.08,5.6,87.72-37.31l1.74-2.7,1.66,2.75c.06.11,6.59,10.73,20.57,20.64C154.06,43.44,176.09,53.84,208,51.5l1.82-.14.3,1.81c.18,1.09,4.35,27.28-4.52,62-8.18,32-29.54,77.43-84.85,111.82ZM31.15,55.07c-3.93,64.21,20.26,106.41,41.37,130.58,20.59,23.57,42.3,35,47,37.37,53.43-33.58,74.15-77.58,82.12-108.66,7.41-28.88,5.49-52.26,4.73-58.75-32.17,1.9-54.52-8.77-67.69-18.15a87.11,87.11,0,0,1-19.8-19.19C106.78,35.56,87.79,47.35,63.76,52.45A127,127,0,0,1,31.15,55.07Z"/><path class="cls-1" d="M44.33,113.9A176.11,176.11,0,0,0,57.5,147.13q4,7.69,8.54,14.86c12.35,19.31,28.17,35.53,48.73,47.67V181.14l-2.7-.45A44.63,44.63,0,0,1,74.4,136.61c0-5.35,0-10.7-.06-16a4,4,0,0,0-1.24-2.46,4.09,4.09,0,0,1-1.39-4.21c0-.08,0-.16.05-.24a3.59,3.59,0,0,1,3.44-2.78,62.35,62.35,0,0,1,6.56.09,3.52,3.52,0,0,1,3.48,2.72c0,.07,0,.14,0,.21a4.32,4.32,0,0,1-1.66,4.35,3.46,3.46,0,0,0-1.1,2.29q-.13,8.22,0,16.45c.12,9.72,3.35,18.25,10.28,25l.59.58c10.89,10.12,23.74,13.53,37.84,8.46a37,37,0,0,0,14.4-9c5.35-5.53,8.59-12.79,9.57-21.57.72-6.51.25-13.14.36-19.72A2.52,2.52,0,0,0,154.2,118a3.47,3.47,0,0,1-1.48-4.13v0A3.46,3.46,0,0,1,156,111a56.64,56.64,0,0,1,6.77.07,3.5,3.5,0,0,1,3.44,2.76s0,.08,0,.12a4.26,4.26,0,0,1-1.59,4.27,3.56,3.56,0,0,0-1.13,2.3c-.09,5.62,0,11.24-.06,16.87A44.11,44.11,0,0,1,155.57,162a43.32,43.32,0,0,1-19.63,15.76c-4.1,1.62-8.47,2.52-12.84,3.79v28a8.66,8.66,0,0,0,1.07-.46c4.6-3.11,9.38-6,13.75-9.38a152.81,152.81,0,0,0,34-37.7,178.93,178.93,0,0,0,21.79-48.09,155.84,155.84,0,0,0,5.66-32.06c.24-3.57.36-7.12.31-10.63,0-3-.18-6-.28-9-31.37,1.46-58-8.69-80.43-30.21A103.57,103.57,0,0,1,82.1,55.78a103.59,103.59,0,0,1-43.48,6.4,158.49,158.49,0,0,0,5.71,51.72ZM102.53,129c-3.83-.05-7.67,0-11.51,0H88.64V118.78c2.28,0,4.51,0,6.75,0,2.4,0,4.8,0,7.2,0a3.72,3.72,0,0,0,4-3.81,5.22,5.22,0,0,0-.11-1.06,3.71,3.71,0,0,0-3.87-2.94c-3.77-.07-7.54,0-11.31,0H88.6V100.75H95c2.4,0,4.8,0,7.2,0,2.76,0,4.3-1.43,4.32-3.86S105,93,102.29,93c-3.77,0-7.54,0-11.31,0H88.44a34.82,34.82,0,0,1,2.15-11.1,28.78,28.78,0,0,1,10.24-13.2c10.18-7.42,21.24-8.25,32.36-2.41a28.66,28.66,0,0,1,14.06,15.61,37.36,37.36,0,0,1,2.23,11c-.83,0-1.49.1-2.14.1-4,0-8,0-11.93,0-2.54,0-4.07,1.54-4.08,3.9a3.73,3.73,0,0,0,4,4c3.49,0,7,0,10.49,0h3.56v10c-.85,0-1.58.13-2.31.13-3.84,0-7.68,0-11.51,0-2.32,0-3.78,1.14-4.15,3a4.92,4.92,0,0,0-.09,1c0,2.44,1.55,3.92,4.25,3.93,4.51,0,9,0,13.67,0V129H137.89c-1,0-1.92,0-2.88,0a3.92,3.92,0,0,0-.06,7.82c3.42.13,6.85.05,10.28.06h4.2c-.43,10.31-4.53,18.42-12.59,24.42-.33.25-.68.47-1,.7a29.82,29.82,0,0,1-32.3,1c-.51-.31-1-.63-1.49-1-8.61-5.84-13-14.22-13.63-25.16h4.93c3.08,0,6.17.06,9.25,0a3.74,3.74,0,0,0,4-4C106.48,130.47,105,129.06,102.53,129Z"/><g class="cls-2"><path class="cls-3" d="M74.4,136.61c0-5.35,0-10.7-.06-16a4,4,0,0,0-1.24-2.46,4.09,4.09,0,0,1-1.39-4.21l0-.15H44.29a.83.83,0,0,0,0,.15A176.11,176.11,0,0,0,57.5,147.13q3.95,7.67,8.5,14.8H82.28A45.18,45.18,0,0,1,74.4,136.61Z"/><path class="cls-3" d="M88.41,136.83h4.93c3.08,0,6.17,0,9.25,0a3.74,3.74,0,0,0,4-4c-.07-2.29-1.53-3.7-4-3.73-3.83-.05-7.67,0-11.51,0H88.64V118.79h6.75c2.4,0,4.8,0,7.2,0a3.72,3.72,0,0,0,4-3.81,5.22,5.22,0,0,0-.11-1.06.58.58,0,0,0,0-.14H85.25l0,.14a4.32,4.32,0,0,1-1.66,4.35,3.46,3.46,0,0,0-1.1,2.29q-.13,8.22,0,16.45c.12,9.7,3.34,18.2,10.22,24.94H102C93.4,156.09,89,147.74,88.41,136.83Z"/><path class="cls-3" d="M166.2,113.76v0s0,.08,0,.12a4.26,4.26,0,0,1-1.59,4.27,3.56,3.56,0,0,0-1.13,2.3c-.09,5.62,0,11.24-.06,16.87a44.06,44.06,0,0,1-7.84,24.59h16.31a178.9,178.9,0,0,0,21.75-48,1,1,0,0,0,0-.14Z"/><path class="cls-3" d="M152.72,113.88s0-.08,0-.12H131.48a.58.58,0,0,0,0,.14,4.92,4.92,0,0,0-.09,1c0,2.44,1.55,3.92,4.25,3.93,4.51,0,9,0,13.67,0V129H137.89c-1,0-1.92,0-2.88,0a3.91,3.91,0,0,0-.06,7.81c3.42.13,6.85.05,10.28.06h4.2c-.43,10.31-4.53,18.42-12.59,24.42-.3.23-.62.43-.92.64h9.73c5.31-5.53,8.53-12.76,9.51-21.51.72-6.51.25-13.14.36-19.72A2.52,2.52,0,0,0,154.2,118a3.47,3.47,0,0,1-1.48-4.13Z"/></g><g class="cls-4"><path class="cls-3" d="M199.33,81.93H147.28a37.54,37.54,0,0,1,2.2,10.87c-.83,0-1.49.1-2.14.1-4,0-8,0-11.93,0-2.54,0-4.07,1.54-4.08,3.9a3.73,3.73,0,0,0,4,4c3.49,0,7,0,10.49,0h3.56v10c-.85,0-1.58.13-2.31.13-3.84,0-7.68,0-11.51,0-2.26,0-3.69,1.09-4.1,2.85h21.28A3.42,3.42,0,0,1,156,111a56.64,56.64,0,0,1,6.77.07,3.49,3.49,0,0,1,3.43,2.73h27.51A156,156,0,0,0,199.33,81.93Z"/><path class="cls-3" d="M38.77,81.93a157.22,157.22,0,0,0,5.52,31.82H71.74s0,0,0-.08a3.58,3.58,0,0,1,3.44-2.79,62.35,62.35,0,0,1,6.56.09,3.52,3.52,0,0,1,3.48,2.72.13.13,0,0,1,0,.06h21.14a3.68,3.68,0,0,0-3.82-2.79c-3.77-.07-7.54,0-11.31,0H88.6V100.75H95c2.4,0,4.8,0,7.2,0,2.76,0,4.3-1.43,4.32-3.86S105,93,102.29,93c-3.77,0-7.54,0-11.31,0H88.44a34.8,34.8,0,0,1,2.12-11Z"/></g><path class="cls-3" d="M199.36,62.22c-31.37,1.46-58-8.69-80.43-30.21A103.7,103.7,0,0,1,82.1,55.78a103.59,103.59,0,0,1-43.48,6.4,159,159,0,0,0,.14,19.66.28.28,0,0,0,0,.09H90.56l0-.09a28.78,28.78,0,0,1,10.24-13.2c10.18-7.42,21.24-8.25,32.36-2.41a28.66,28.66,0,0,1,14.06,15.61l0,.09h52.05v-.09c.24-3.57.36-7.12.31-10.63C199.6,68.23,199.46,65.25,199.36,62.22Z"/></svg>